<!DOCTYPE svg PUBLIC "-//W3C//DTD SVG 1.1//EN" "http://www.w3.org/Graphics/SVG/1.1/DTD/svg11.dtd">
<!-- Uploaded to: SVG Repo, www.svgrepo.com, Transformed by: SVG Repo Mixer Tools -->
<svg fill="#1e02ed" height="800px" width="800px" version="1.1" id="Layer_1" xmlns="http://www.w3.org/2000/svg" xmlns:xlink="http://www.w3.org/1999/xlink" viewBox="0 0 512 512" xml:space="preserve" stroke="#1e02ed">
<g id="SVGRepo_bgCarrier" stroke-width="0"/>
<g id="SVGRepo_tracerCarrier" stroke-linecap="round" stroke-linejoin="round"/>
<g id="SVGRepo_iconCarrier"> <g> <g> <path d="M512,198.818L443.643,72.706l-115.916,62.835V3.686H184.284v131.856L68.357,72.706L0,198.817l105.493,57.182L0,313.17 l68.357,126.112l115.927-62.836v131.868h143.433V376.446l115.927,62.836L512,313.171L406.507,256L512,198.818z M490.354,319.6 l-53.139,98.037L311.75,349.632v142.715h-111.5V349.632L74.785,417.637L21.646,319.6l117.356-63.598L21.646,192.39l53.139-98.038 l125.465,68.004V19.653h111.51v142.705l125.454-68.006l53.139,98.038l-117.356,63.612L490.354,319.6z"/> </g> </g> <g> <g> <path d="M274.611,178.553c0-15.755-6.9-24.129-12.443-30.857c-4.919-5.968-8.803-10.684-8.803-20.715 c0-10.024,3.884-14.737,8.8-20.703c5.546-6.729,12.446-15.105,12.446-30.869h-15.966c0,10.032-3.885,14.748-8.803,20.716 c-5.545,6.728-12.443,15.102-12.443,30.856c0,15.762,6.901,24.138,12.446,30.868c4.917,5.966,8.8,10.68,8.8,20.704 s-3.884,14.737-8.801,20.703c-5.545,6.727-12.445,15.101-12.445,30.857c0,15.755,6.899,24.129,12.443,30.857 c4.919,5.968,8.803,10.684,8.803,20.715c0,10.038-3.885,14.755-8.803,20.728c-5.545,6.733-12.443,15.112-12.443,30.877 c0,15.772,6.898,24.156,12.44,30.893c4.92,5.982,8.806,10.707,8.806,20.763c0,10.049-3.885,14.773-8.804,20.752 c-5.544,6.737-12.441,15.121-12.441,30.894h15.967c0-10.049,3.886-14.772,8.804-20.75c5.544-6.738,12.441-15.122,12.441-30.896 c0-15.779-6.899-24.167-12.442-30.906c-4.92-5.979-8.804-10.702-8.804-20.75c0-10.038,3.885-14.755,8.803-20.728 c5.545-6.732,12.443-15.112,12.443-30.877c0-15.762-6.901-24.138-12.446-30.868c-4.917-5.966-8.8-10.68-8.8-20.704 s3.884-14.737,8.801-20.703C267.71,202.682,274.611,194.309,274.611,178.553z"/> </g> </g> </g>
</svg>